<svg width="20" height="20" viewBox="0 0 20 20" fill="none" xmlns="http://www.w3.org/2000/svg">
<path d="M9.07479 2.25583C9.41414 1.42845 10.5859 1.42845 10.9252 2.25583L12.6493 6.45955C12.793 6.80979 13.1221 7.04889 13.4995 7.07727L18.0303 7.41798C18.922 7.48504 19.2841 8.59942 18.6021 9.17783L15.1369 12.1166C14.8482 12.3614 14.7225 12.7483 14.8122 13.1161L15.8882 17.5304C16.1 18.3992 15.152 19.0879 14.3912 18.618L10.5255 16.2305C10.2034 16.0316 9.79661 16.0316 9.47454 16.2305L5.60881 18.618C4.84796 19.0879 3.90001 18.3992 4.1118 17.5304L5.18785 13.1161C5.2775 12.7483 5.1518 12.3614 4.86309 12.1166L1.3979 9.17783C0.715877 8.59942 1.07796 7.48504 1.96971 7.41798L6.50046 7.07727C6.87794 7.04889 7.20704 6.80979 7.35068 6.45955L9.07479 2.25583Z" stroke="black" stroke-width="2"/>
</svg>
